<svg width="153" height="63" viewBox="0 0 153 63" fill="none" xmlns="http://www.w3.org/2000/svg">
<path d="M60.8542 1.36259H45.7315H30.6075H15.4848C7.13285 1.36259 0.362183 8.13326 0.362183 16.4853V61.8346H15.4848V16.4813H30.6075V61.8346H45.7315V16.4813H60.8542V61.8346H75.9768V16.4853C75.9768 8.13326 69.2062 1.36259 60.8542 1.36259Z" fill="#1D1D1D"/>
<path d="M121.346 46.6334C112.997 46.6334 106.229 39.8654 106.229 31.5147C106.229 23.1654 112.997 16.3974 121.346 16.3974C129.697 16.3974 136.465 23.1654 136.465 31.5147C136.465 39.8654 129.697 46.6334 121.346 46.6334ZM121.346 0.333383C104.126 0.333383 90.1651 14.2947 90.1651 31.5147C90.1651 48.736 104.126 62.696 121.346 62.696C138.568 62.696 152.528 48.736 152.528 31.5147C152.528 14.2947 138.568 0.333383 121.346 0.333383Z" fill="#1D1D1D"/>
</svg>
